<svg width="20" height="20" viewBox="0 0 20 20" fill="none" xmlns="http://www.w3.org/2000/svg">
<path d="M19.5 10C19.5 15.2467 15.2467 19.5 10 19.5C4.75329 19.5 0.5 15.2467 0.5 10C0.5 4.75329 4.75329 0.5 10 0.5C15.2467 0.5 19.5 4.75329 19.5 10Z" stroke="#EDD27C"/>
<path d="M5.84143 13.1233C5.86643 13.2228 6.49032 15.5561 9.99977 15.5561C13.5098 15.5561 14.1331 13.2228 14.1581 13.1233C14.1887 13.0028 14.1342 12.8778 14.0264 12.8155C13.9181 12.7539 13.7825 12.7722 13.6931 12.8583C13.6825 12.8689 12.6075 13.8894 9.99977 13.8894C7.39199 13.8894 6.31643 12.8689 6.30643 12.8589C6.2531 12.8061 6.18199 12.7783 6.11088 12.7783C6.06421 12.7783 6.01699 12.79 5.97421 12.8139C5.86532 12.8761 5.81088 13.0022 5.84143 13.1233Z" fill="#EDD27C"/>
<path d="M6.66672 9.44455C7.43378 9.44455 8.05561 8.574 8.05561 7.50011C8.05561 6.42622 7.43378 5.55566 6.66672 5.55566C5.89966 5.55566 5.27783 6.42622 5.27783 7.50011C5.27783 8.574 5.89966 9.44455 6.66672 9.44455Z" fill="#EDD27C"/>
<path d="M13.3332 9.44455C14.1003 9.44455 14.7221 8.574 14.7221 7.50011C14.7221 6.42622 14.1003 5.55566 13.3332 5.55566C12.5662 5.55566 11.9443 6.42622 11.9443 7.50011C11.9443 8.574 12.5662 9.44455 13.3332 9.44455Z" fill="#EDD27C"/>
</svg>
