<svg width="430" height="301" viewBox="0 0 430 301" fill="none" xmlns="http://www.w3.org/2000/svg">
<g opacity="0.5">
<path d="M-35.9208 178.784C-35.9208 178.784 66.475 241.418 135.494 213.138C206.015 184.243 149.092 97.6629 219.899 69.3637C282.689 44.2689 320.635 124.122 379.276 92.1969C417.52 71.3766 439.898 12.5789 439.898 12.5789" stroke="#F2AF1A"/>
<path d="M-29.6241 198.486C-29.6241 198.486 72.7716 261.12 141.791 232.84C212.312 203.945 155.389 117.365 226.196 89.0656C288.985 63.9709 326.931 143.824 385.573 111.899C423.817 91.0786 446.195 32.2809 446.195 32.2809" stroke="#48D4A5"/>
<path d="M-22.8505 219.681C-22.8505 219.681 79.5452 282.315 148.564 254.035C219.085 225.14 162.162 138.56 232.97 110.261C295.759 85.1659 333.705 165.019 392.346 133.094C430.59 112.274 452.968 53.4759 452.968 53.4759" stroke="#5A5A5A"/>
</g>
</svg>
