<svg width="16" height="9" viewBox="0 0 16 9" fill="none" xmlns="http://www.w3.org/2000/svg">
<path d="M10.6666 1.70066C10.1749 1.70066 9.77772 1.32082 9.77772 0.850664C9.77772 0.380507 10.1749 0.000663757 10.6666 0.000663757H15.1111C15.6027 0.000663757 15.9999 0.380507 15.9999 0.850664V5.10066C15.9999 5.57082 15.6027 5.95066 15.1111 5.95066C14.6194 5.95066 14.2222 5.57082 14.2222 5.10066V2.90394L9.51661 7.40098C9.16939 7.73301 8.6055 7.73301 8.25828 7.40098L5.33328 4.60395L1.51661 8.25098C1.16939 8.58301 0.605503 8.58301 0.25828 8.25098C-0.0889418 7.91895 -0.0889418 7.37973 0.25828 7.0477L4.70272 2.79769C5.04995 2.46566 5.61384 2.46566 5.96106 2.79769L8.88884 5.59738L12.9638 1.70066H10.6666Z" fill="white"/>
</svg>
