<svg width="17" height="14" viewBox="0 0 17 14" fill="none" xmlns="http://www.w3.org/2000/svg">
<path d="M10.5571 6.125H9.22857C7.94286 6.125 6.9 7.12305 6.9 8.35352C6.9 8.96328 7.19429 9.29141 7.44857 9.46094C7.64286 9.58945 7.81429 9.78906 7.81429 10.016C7.81429 10.284 7.58571 10.5027 7.30571 10.5027H7.23429C7.16571 10.5027 7.09714 10.4918 7.03143 10.4645C6.52286 10.2484 4.15714 9.11641 4.15714 6.5625C4.15714 4.38867 6 2.625 8.27143 2.625H10.5571V0.948828C10.5571 0.423828 11 0 11.5486 0C11.7943 0 12.0286 0.0875 12.2114 0.243359L16.16 3.64492C16.3771 3.83086 16.5 4.09609 16.5 4.375C16.5 4.65391 16.3771 4.91914 16.16 5.10508L12.1886 8.52578C12.02 8.6707 11.8029 8.75 11.5771 8.75H11.4714C10.9657 8.75 10.5571 8.35898 10.5571 7.875V6.125ZM2.78571 2.625C2.53429 2.625 2.32857 2.82188 2.32857 3.0625V11.8125C2.32857 12.0531 2.53429 12.25 2.78571 12.25H11.9286C12.18 12.25 12.3857 12.0531 12.3857 11.8125V10.5C12.3857 10.016 12.7943 9.625 13.3 9.625C13.8057 9.625 14.2143 10.016 14.2143 10.5V11.8125C14.2143 13.0211 13.1914 14 11.9286 14H2.78571C1.52286 14 0.5 13.0211 0.5 11.8125V3.0625C0.5 1.85391 1.52286 0.875 2.78571 0.875H4.15714C4.66286 0.875 5.07143 1.26602 5.07143 1.75C5.07143 2.23398 4.66286 2.625 4.15714 2.625H2.78571Z" fill="#EDD27C"/>
</svg>
