<svg width="19" height="16" viewBox="0 0 19 16" fill="none" xmlns="http://www.w3.org/2000/svg">
<path d="M4.99999 3C5.39781 3 5.77934 2.84196 6.06065 2.56066C6.34195 2.27936 6.49999 1.89782 6.49999 1.5C6.49999 1.10218 6.34195 0.720644 6.06065 0.43934C5.77934 0.158035 5.39781 0 4.99999 0C4.60216 0 4.22063 0.158035 3.93933 0.43934C3.65802 0.720644 3.49999 1.10218 3.49999 1.5C3.49999 1.89782 3.65802 2.27936 3.93933 2.56066C4.22063 2.84196 4.60216 3 4.99999 3ZM4.74999 15V11H5.24999V15C5.24999 15.5531 5.69686 16 6.24999 16C6.80311 16 7.24999 15.5531 7.24999 15V6H8.99999H11H11.5C12.0531 6 12.5 5.55312 12.5 5C12.5 4.44688 12.0531 4 11.5 4H11V2H17V8H11V7H8.99999V8.5C8.99999 9.32812 9.67186 10 10.5 10H17.5C18.3281 10 19 9.32812 19 8.5V1.5C19 0.671875 18.3281 0 17.5 0H10.5C9.67186 0 8.99999 0.671875 8.99999 1.5V4H6.59686H4.53749C3.48436 4 2.50936 4.55313 1.96561 5.45625L0.143738 8.4875C-0.140637 8.95938 0.012488 9.575 0.484363 9.85938C0.956238 10.1438 1.57186 9.99063 1.85624 9.51875L2.74999 8.02812V15C2.74999 15.5531 3.19686 16 3.74999 16C4.30311 16 4.74999 15.5531 4.74999 15Z" fill="white"/>
</svg>
