<svg width="20" height="18" viewBox="0 0 20 18" fill="none" xmlns="http://www.w3.org/2000/svg">
<path d="M3.75 2.75C3.75 1.37109 4.87109 0.25 6.25 0.25H17.5C18.8789 0.25 20 1.37109 20 2.75V15.25C20 16.6289 18.8789 17.75 17.5 17.75H3.125C1.39844 17.75 0 16.3516 0 14.625V4C0 3.30859 0.558594 2.75 1.25 2.75C1.94141 2.75 2.5 3.30859 2.5 4V14.625C2.5 14.9688 2.78125 15.25 3.125 15.25C3.46875 15.25 3.75 14.9688 3.75 14.625V2.75ZM6.25 3.6875V6.8125C6.25 7.33203 6.66797 7.75 7.1875 7.75H11.5625C12.082 7.75 12.5 7.33203 12.5 6.8125V3.6875C12.5 3.16797 12.082 2.75 11.5625 2.75H7.1875C6.66797 2.75 6.25 3.16797 6.25 3.6875ZM14.375 3.375C14.375 3.71875 14.6562 4 15 4H16.875C17.2188 4 17.5 3.71875 17.5 3.375C17.5 3.03125 17.2188 2.75 16.875 2.75H15C14.6562 2.75 14.375 3.03125 14.375 3.375ZM14.375 7.125C14.375 7.46875 14.6562 7.75 15 7.75H16.875C17.2188 7.75 17.5 7.46875 17.5 7.125C17.5 6.78125 17.2188 6.5 16.875 6.5H15C14.6562 6.5 14.375 6.78125 14.375 7.125ZM6.25 10.875C6.25 11.2188 6.53125 11.5 6.875 11.5H16.875C17.2188 11.5 17.5 11.2188 17.5 10.875C17.5 10.5312 17.2188 10.25 16.875 10.25H6.875C6.53125 10.25 6.25 10.5312 6.25 10.875ZM6.25 14.625C6.25 14.9688 6.53125 15.25 6.875 15.25H16.875C17.2188 15.25 17.5 14.9688 17.5 14.625C17.5 14.2812 17.2188 14 16.875 14H6.875C6.53125 14 6.25 14.2812 6.25 14.625Z" fill="white"/>
</svg>
