<svg width="16" height="16" viewBox="0 0 16 16" fill="none" xmlns="http://www.w3.org/2000/svg">
<path d="M7.28607 0.727921C7.6781 0.328206 8.3219 0.328206 8.71393 0.72792L10.0317 2.07155C10.2222 2.26571 10.4834 2.37393 10.7554 2.37129L12.6373 2.35304C13.1972 2.34761 13.6524 2.80284 13.647 3.36269L13.6287 5.24462C13.6261 5.51655 13.7343 5.77783 13.9284 5.96825L15.2721 7.28607C15.6718 7.6781 15.6718 8.3219 15.2721 8.71393L13.9284 10.0317C13.7343 10.2222 13.6261 10.4834 13.6287 10.7554L13.647 12.6373C13.6524 13.1972 13.1972 13.6524 12.6373 13.647L10.7554 13.6287C10.4834 13.6261 10.2222 13.7343 10.0317 13.9284L8.71393 15.2721C8.3219 15.6718 7.6781 15.6718 7.28607 15.2721L5.96825 13.9284C5.77783 13.7343 5.51655 13.6261 5.24462 13.6287L3.36269 13.647C2.80284 13.6524 2.34761 13.1972 2.35304 12.6373L2.37129 10.7554C2.37393 10.4834 2.26571 10.2222 2.07155 10.0317L0.727921 8.71393C0.328206 8.3219 0.328206 7.6781 0.72792 7.28607L2.07155 5.96825C2.26571 5.77783 2.37393 5.51655 2.37129 5.24462L2.35304 3.36269C2.34761 2.80284 2.80284 2.34761 3.36269 2.35304L5.24462 2.37129C5.51655 2.37393 5.77783 2.26571 5.96825 2.07155L7.28607 0.727921Z" fill="#71F676"/>
<path d="M11 6L8.9785 8.50879C8.17745 9.50293 7.77692 10 7.25 10C6.72308 10 6.32255 9.50293 5.5215 8.50878L5 7.86157" stroke="#086A01" stroke-width="1.2" stroke-linecap="round"/>
</svg>
