<svg width="16" height="16" viewBox="0 0 16 16" fill="none" xmlns="http://www.w3.org/2000/svg">
<path d="M3.78255 4.61443H5.51694C6.12726 4.61443 6.62033 5.10751 6.62033 5.71782C6.62033 6.32813 6.12726 6.82121 5.51694 6.82121H1.10339C0.493077 6.82121 0 6.32813 0 5.71782V1.30426C0 0.693951 0.493077 0.200874 1.10339 0.200874C1.7137 0.200874 2.20678 0.693951 2.20678 1.30426V3.06968L2.81364 2.46282C5.83072 -0.554257 10.7201 -0.554257 13.7372 2.46282C16.7543 5.4799 16.7543 10.3693 13.7372 13.3864C10.7201 16.4034 5.83072 16.4034 2.81364 13.3864C2.38263 12.9554 2.38263 12.2554 2.81364 11.8244C3.24465 11.3934 3.94461 11.3934 4.37563 11.8244C6.53068 13.9794 10.0236 13.9794 12.1787 11.8244C14.3337 9.66933 14.3337 6.17641 12.1787 4.02136C10.0236 1.8663 6.53068 1.8663 4.37563 4.02136L3.78255 4.61443Z" fill="#EDD27C"/>
</svg>
