<svg width="16" height="12" viewBox="0 0 16 12" fill="none" xmlns="http://www.w3.org/2000/svg">
<path d="M1.60419 5.99987C1.60419 6.76903 1.73162 7.49285 1.98648 8.17133C2.2412 8.8498 2.58815 9.46362 3.02731 10.0128C3.1437 10.1665 3.2003 10.3367 3.1971 10.5232C3.19391 10.7096 3.12558 10.8695 2.9921 11.003C2.8446 11.1505 2.68301 11.2146 2.50731 11.1953C2.33148 11.1761 2.17842 11.0965 2.04815 10.9565C1.4787 10.2739 1.03315 9.51647 0.711479 8.68424C0.389951 7.85188 0.229187 6.95709 0.229187 5.99987C0.229187 5.04265 0.389951 4.15056 0.711479 3.32362C1.03315 2.49667 1.4787 1.73654 2.04815 1.0432C2.17842 0.903202 2.33148 0.820146 2.50731 0.794035C2.68301 0.767785 2.8446 0.828409 2.9921 0.975909C3.12558 1.10938 3.19391 1.27278 3.1971 1.46612C3.2003 1.65959 3.1437 1.8332 3.02731 1.98695C2.58815 2.53612 2.2412 3.14994 1.98648 3.82841C1.73162 4.50688 1.60419 5.2307 1.60419 5.99987ZM4.93752 5.99987C4.93752 6.30015 4.98321 6.5873 5.0746 6.86133C5.16585 7.13535 5.29217 7.38556 5.45356 7.61195C5.53898 7.79362 5.57662 7.97584 5.56648 8.15862C5.55634 8.34126 5.47759 8.50626 5.33023 8.65362C5.18273 8.80112 5.01842 8.86528 4.83731 8.84612C4.6562 8.82681 4.51599 8.74022 4.41669 8.58633C4.13891 8.21244 3.9271 7.81181 3.78127 7.38445C3.63544 6.95709 3.56252 6.49556 3.56252 5.99987C3.56252 5.51487 3.63544 5.05598 3.78127 4.6232C3.9271 4.19056 4.13891 3.7873 4.41669 3.41341C4.5053 3.25952 4.64287 3.17028 4.8294 3.1457C5.01578 3.12112 5.18273 3.18258 5.33023 3.33008C5.4637 3.46355 5.53898 3.62778 5.55606 3.82278C5.57315 4.01778 5.53898 4.20612 5.45356 4.38778C5.29217 4.61417 5.16585 4.86438 5.0746 5.13841C4.98321 5.41244 4.93752 5.69959 4.93752 5.99987ZM8.00002 7.10404C7.70724 7.10404 7.45002 6.9932 7.22835 6.77153C7.00669 6.54987 6.89585 6.29265 6.89585 5.99987C6.89585 5.70709 7.00669 5.44987 7.22835 5.2282C7.45002 5.00654 7.70724 4.8957 8.00002 4.8957C8.2928 4.8957 8.55002 5.00654 8.77169 5.2282C8.99335 5.44987 9.10419 5.70709 9.10419 5.99987C9.10419 6.29265 8.99335 6.54987 8.77169 6.77153C8.55002 6.9932 8.2928 7.10404 8.00002 7.10404ZM11.0625 5.99987C11.0625 5.69959 11.0168 5.41244 10.9254 5.13841C10.8342 4.86438 10.7079 4.61417 10.5465 4.38778C10.4611 4.20612 10.4242 4.02042 10.4359 3.8307C10.4477 3.64112 10.5203 3.47959 10.6538 3.34612C10.8013 3.19862 10.9709 3.13445 11.1627 3.15362C11.3545 3.17292 11.4947 3.25952 11.5834 3.41341C11.8611 3.7873 12.0729 4.19056 12.2188 4.6232C12.3646 5.05598 12.4375 5.51487 12.4375 5.99987C12.4375 6.49556 12.3646 6.95709 12.2188 7.38445C12.0729 7.81181 11.8611 8.21244 11.5834 8.58633C11.484 8.74022 11.3438 8.82598 11.1627 8.84362C10.9816 8.86126 10.8173 8.79633 10.6698 8.64883C10.5363 8.51535 10.4645 8.35459 10.4544 8.16654C10.4443 7.97848 10.475 7.79362 10.5465 7.61195C10.7079 7.38556 10.8342 7.13535 10.9254 6.86133C11.0168 6.5873 11.0625 6.30015 11.0625 5.99987ZM14.3959 5.99987C14.3959 5.24126 14.2684 4.52278 14.0136 3.84445C13.7588 3.16598 13.4119 2.54681 12.9727 1.98695C12.8563 1.8332 12.8024 1.66306 12.8109 1.47653C12.8195 1.29015 12.8905 1.13021 13.024 0.996743C13.1715 0.849243 13.3304 0.785146 13.5009 0.804451C13.6713 0.823618 13.8216 0.903202 13.9519 1.0432C14.5213 1.73654 14.9669 2.49667 15.2886 3.32362C15.6101 4.15056 15.7709 5.04265 15.7709 5.99987C15.7709 6.95709 15.6101 7.85188 15.2886 8.68424C14.9669 9.51647 14.5213 10.2739 13.9519 10.9565C13.8216 11.0965 13.6686 11.1796 13.4927 11.2057C13.317 11.232 13.1554 11.1713 13.0079 11.0238C12.8745 10.8904 12.8061 10.727 12.8029 10.5336C12.7997 10.3401 12.8563 10.1665 12.9727 10.0128C13.4119 9.46362 13.7588 8.8498 14.0136 8.17133C14.2684 7.49285 14.3959 6.76903 14.3959 5.99987Z" fill="#5C4200"/>
</svg>
