<svg width="16" height="15" viewBox="0 0 16 15" fill="none" xmlns="http://www.w3.org/2000/svg">
<path d="M2.97062 5.83233C3.22734 5.15104 3.64409 4.51038 4.23088 3.96347C6.31465 2.01024 9.69202 2.01024 11.7758 3.96347L12.3459 4.501H11.2023C10.6122 4.501 10.1354 4.9479 10.1354 5.50106C10.1354 6.05422 10.6122 6.50112 11.2023 6.50112H14.9198H14.9331C15.5232 6.50112 16 6.05422 16 5.50106V2.00086C16 1.44771 15.5232 1.00081 14.9331 1.00081C14.343 1.00081 13.8662 1.44771 13.8662 2.00086V3.10093L13.2828 2.5509C10.3655 -0.183632 5.63784 -0.183632 2.72057 2.5509C1.90706 3.31344 1.32028 4.21036 0.9602 5.16979C0.763492 5.6917 1.05689 6.26048 1.61034 6.44486C2.16378 6.62925 2.77391 6.35423 2.97062 5.83545V5.83233ZM0.766826 8.54185C0.600125 8.58873 0.440092 8.67311 0.310065 8.79812C0.176703 8.92313 0.0866847 9.07313 0.0400084 9.23564C0.0300063 9.27315 0.0200042 9.31377 0.0133361 9.3544C0.00333401 9.40753 0 9.46066 0 9.51378V13.0015C0 13.5546 0.476766 14.0015 1.06689 14.0015C1.65701 14.0015 2.13378 13.5546 2.13378 13.0015V11.9045L2.72057 12.4514C5.63784 15.1828 10.3655 15.1828 13.2794 12.4514C14.0929 11.6889 14.6831 10.792 15.0431 9.83255C15.2398 9.31065 14.9464 8.74187 14.393 8.55748C13.8396 8.3731 13.2294 8.64811 13.0327 9.16689C12.776 9.84818 12.3592 10.4888 11.7725 11.0357C9.68869 12.989 6.31132 12.989 4.22755 11.0357L4.22421 11.0326L3.65409 10.5013H4.801C5.39112 10.5013 5.86789 10.0544 5.86789 9.50128C5.86789 8.94813 5.39112 8.50123 4.801 8.50123H1.08023C1.02688 8.50123 0.973536 8.50435 0.920192 8.5106C0.866847 8.51685 0.816837 8.52623 0.766826 8.54185Z" fill="#EDD27C"/>
</svg>
