<svg width="16" height="20" viewBox="0 0 16 20" fill="none" xmlns="http://www.w3.org/2000/svg">
<path d="M9.78998 5.00022C9.78998 3.93929 9.36853 2.92182 8.61835 2.17164C7.86816 1.42145 6.85069 1 5.78977 1C4.72884 1 3.71137 1.42145 2.96119 2.17164C2.211 2.92182 1.78955 3.93929 1.78955 5.00022" stroke="white" stroke-width="1.5" stroke-linecap="round" stroke-linejoin="round"/>
<path d="M7.10784 7.92133V5.36419C7.09822 5.00894 6.95034 4.67147 6.69567 4.42361C6.441 4.17574 6.09965 4.03705 5.74427 4.03705C5.38889 4.03705 5.04754 4.17574 4.79287 4.42361C4.5382 4.67147 4.39032 5.00894 4.38069 5.36419V13.2566L2.90761 11.8005C2.75417 11.6498 2.57099 11.5328 2.36978 11.4569C2.16856 11.3809 1.95372 11.3478 1.73897 11.3596C1.52423 11.3713 1.3143 11.4277 1.12257 11.5252C0.930853 11.6226 0.761556 11.759 0.625491 11.9255C0.41339 12.1865 0.295127 12.5112 0.289686 12.8474C0.284245 13.1836 0.391943 13.512 0.595489 13.7796L3.32764 17.3748C3.94767 18.1909 4.25769 18.5989 4.62971 18.9159C5.19974 19.4 5.87978 19.736 6.61382 19.896C7.09384 20 7.61087 20 8.64392 20C10.614 20 11.5991 20 12.3831 19.703C12.9736 19.4807 13.5108 19.1368 13.9598 18.6935C14.4088 18.2502 14.7595 17.7175 14.9893 17.1298C15.2903 16.3558 15.2903 15.3827 15.2903 13.4386V11.2255C15.2872 10.7989 15.1326 10.3872 14.8542 10.0639C14.5758 9.74066 14.1917 9.52677 13.7702 9.46041L13.4602 9.41041C13.3508 9.39141 13.2386 9.39643 13.1313 9.42511C13.024 9.45379 12.9243 9.50545 12.8389 9.57651C12.7536 9.64757 12.6847 9.73633 12.6371 9.83664C12.5895 9.93695 12.5643 10.0464 12.5631 10.1574M7.10784 7.92133L7.63287 7.66231C7.88588 7.53731 8.1679 7.4573 8.44291 7.52231C8.83716 7.61308 9.18921 7.83429 9.44204 8.15011C9.69488 8.46592 9.83369 8.6349 9.83599 9.03945M7.10784 7.92133V10.1574V7.92133ZM9.83599 9.03945V10.1574V9.03945ZM9.83599 9.03945C9.83599 8.54543 10.243 8.36735 10.745 8.36735C11.7491 8.36735 12.5631 9.1694 12.5631 10.1574M12.5631 10.1574V11.0525V10.1574Z" fill="white"/>
</svg>
