<svg width="20" height="18" viewBox="0 0 20 18" fill="none" xmlns="http://www.w3.org/2000/svg">
<path d="M19.6328 9.88281C20.1211 9.39453 20.1211 8.60156 19.6328 8.11328L14.6328 3.11328C14.1445 2.625 13.3516 2.625 12.8633 3.11328C12.375 3.60156 12.375 4.39453 12.8633 4.88281L15.7305 7.75H7.5C6.80859 7.75 6.25 8.30859 6.25 9C6.25 9.69141 6.80859 10.25 7.5 10.25H15.7305L12.8633 13.1172C12.375 13.6055 12.375 14.3984 12.8633 14.8867C13.3516 15.375 14.1445 15.375 14.6328 14.8867L19.6328 9.88672V9.88281ZM6.25 2.75C6.94141 2.75 7.5 2.19141 7.5 1.5C7.5 0.808594 6.94141 0.25 6.25 0.25H3.75C1.67969 0.25 0 1.92969 0 4V14C0 16.0703 1.67969 17.75 3.75 17.75H6.25C6.94141 17.75 7.5 17.1914 7.5 16.5C7.5 15.8086 6.94141 15.25 6.25 15.25H3.75C3.05859 15.25 2.5 14.6914 2.5 14V4C2.5 3.30859 3.05859 2.75 3.75 2.75H6.25Z" fill="white"/>
</svg>
