<svg width="15" height="18" viewBox="0 0 15 18" fill="none" xmlns="http://www.w3.org/2000/svg">
<path d="M5.5 13.9998C5.04167 13.9998 4.64931 13.8366 4.32292 13.5103C3.99653 13.1839 3.83333 12.7915 3.83333 12.3332V2.33317C3.83333 1.87484 3.99653 1.48248 4.32292 1.15609C4.64931 0.829698 5.04167 0.666504 5.5 0.666504H13C13.4583 0.666504 13.8507 0.829698 14.1771 1.15609C14.5035 1.48248 14.6667 1.87484 14.6667 2.33317V12.3332C14.6667 12.7915 14.5035 13.1839 14.1771 13.5103C13.8507 13.8366 13.4583 13.9998 13 13.9998H5.5ZM2.16667 17.3332C1.70833 17.3332 1.31597 17.17 0.989583 16.8436C0.663194 16.5172 0.5 16.1248 0.5 15.6665V4.83317C0.5 4.59706 0.579861 4.39914 0.739583 4.23942C0.899306 4.0797 1.09722 3.99984 1.33333 3.99984C1.56944 3.99984 1.76736 4.0797 1.92708 4.23942C2.08681 4.39914 2.16667 4.59706 2.16667 4.83317V15.6665H10.5C10.7361 15.6665 10.934 15.7464 11.0938 15.9061C11.2535 16.0658 11.3333 16.2637 11.3333 16.4998C11.3333 16.7359 11.2535 16.9339 11.0938 17.0936C10.934 17.2533 10.7361 17.3332 10.5 17.3332H2.16667Z" fill="url(#paint0_linear_243_1935)"/>
<defs>
<linearGradient id="paint0_linear_243_1935" x1="7.58333" y1="0.666504" x2="7.58333" y2="17.3332" gradientUnits="userSpaceOnUse">
<stop offset="0.36" stop-color="#EDD27C"/>
<stop offset="1" stop-color="#A37C00"/>
</linearGradient>
</defs>
</svg>
