<svg width="14" height="14" viewBox="0 0 14 14" fill="none" xmlns="http://www.w3.org/2000/svg">
<path d="M6.06659 8.19967L4.63325 6.76634C4.51103 6.64412 4.35547 6.58301 4.16658 6.58301C3.9777 6.58301 3.82214 6.64412 3.69992 6.76634C3.5777 6.88856 3.51659 7.04412 3.51659 7.23301C3.51659 7.4219 3.5777 7.57745 3.69992 7.69967L5.59992 9.59967C5.73325 9.73301 5.88881 9.79967 6.06659 9.79967C6.24436 9.79967 6.39992 9.73301 6.53325 9.59967L10.2999 5.83301C10.4221 5.71079 10.4833 5.55523 10.4833 5.36634C10.4833 5.17745 10.4221 5.0219 10.2999 4.89967C10.1777 4.77745 10.0221 4.71634 9.83325 4.71634C9.64436 4.71634 9.48881 4.77745 9.36658 4.89967L6.06659 8.19967ZM6.99992 13.6663C6.0777 13.6663 5.21103 13.4913 4.39992 13.1413C3.58881 12.7913 2.88325 12.3163 2.28325 11.7163C1.68325 11.1163 1.20825 10.4108 0.858252 9.59967C0.508252 8.78856 0.333252 7.9219 0.333252 6.99967C0.333252 6.07745 0.508252 5.21079 0.858252 4.39967C1.20825 3.58856 1.68325 2.88301 2.28325 2.28301C2.88325 1.68301 3.58881 1.20801 4.39992 0.858008C5.21103 0.508008 6.0777 0.333008 6.99992 0.333008C7.92214 0.333008 8.78881 0.508008 9.59992 0.858008C10.411 1.20801 11.1166 1.68301 11.7166 2.28301C12.3166 2.88301 12.7916 3.58856 13.1416 4.39967C13.4916 5.21079 13.6666 6.07745 13.6666 6.99967C13.6666 7.9219 13.4916 8.78856 13.1416 9.59967C12.7916 10.4108 12.3166 11.1163 11.7166 11.7163C11.1166 12.3163 10.411 12.7913 9.59992 13.1413C8.78881 13.4913 7.92214 13.6663 6.99992 13.6663Z" fill="#6FDC66"/>
</svg>
