<svg width="18" height="18" viewBox="0 0 18 18" fill="none" xmlns="http://www.w3.org/2000/svg">
<path d="M9 9C7.75 9 6.6875 8.5625 5.8125 7.6875C4.9375 6.8125 4.5 5.75 4.5 4.5C4.5 3.25 4.9375 2.1875 5.8125 1.3125C6.6875 0.4375 7.75 0 9 0C10.25 0 11.3125 0.4375 12.1875 1.3125C13.0625 2.1875 13.5 3.25 13.5 4.5C13.5 5.75 13.0625 6.8125 12.1875 7.6875C11.3125 8.5625 10.25 9 9 9ZM0 15.75V15C0 14.5208 0.130208 14.0677 0.390625 13.6406C0.651042 13.2135 1.01042 12.8542 1.46875 12.5625C2.61458 11.8958 3.82812 11.3854 5.10938 11.0313C6.39063 10.6771 7.6875 10.5 9 10.5C10.3125 10.5 11.6094 10.6771 12.8906 11.0313C14.1719 11.3854 15.3854 11.8958 16.5313 12.5625C16.9896 12.8333 17.349 13.1875 17.6094 13.625C17.8698 14.0625 18 14.5208 18 15V15.75C18 16.375 17.7813 16.9062 17.3438 17.3438C16.9062 17.7813 16.375 18 15.75 18H2.25C1.625 18 1.09375 17.7813 0.65625 17.3438C0.21875 16.9062 0 16.375 0 15.75Z" fill="white"/>
</svg>
