<svg width="17" height="18" viewBox="0 0 17 18" fill="none" xmlns="http://www.w3.org/2000/svg">
<path fill-rule="evenodd" clip-rule="evenodd" d="M3.25658 0C4.07442 0 4.73684 0.662418 4.73684 1.48026V3.25658C4.73684 4.07442 4.07442 4.73684 3.25658 4.73684H1.48026C0.662418 4.73684 0 4.07442 0 3.25658V1.48026C0 0.662418 0.662418 0 1.48026 0H3.25658ZM3.25658 6.63158C4.07442 6.63158 4.73684 7.294 4.73684 8.11184V9.88816C4.73684 10.706 4.07442 11.3684 3.25658 11.3684H1.48026C0.662418 11.3684 0 10.706 0 9.88816V8.11184C0 7.294 0.662418 6.63158 1.48026 6.63158H3.25658ZM5.92105 3.25658V1.48026C5.92105 0.662418 6.58347 0 7.40132 0H9.17763C9.99548 0 10.6579 0.662418 10.6579 1.48026V3.25658C10.6579 4.07442 9.99548 4.73684 9.17763 4.73684H7.40132C6.58347 4.73684 5.92105 4.07442 5.92105 3.25658ZM9.17763 6.63158C9.99548 6.63158 10.6579 7.294 10.6579 8.11184V9.88816C10.6579 10.706 9.99548 11.3684 9.17763 11.3684H7.40132C6.58347 11.3684 5.92105 10.706 5.92105 9.88816V8.11184C5.92105 7.294 6.58347 6.63158 7.40132 6.63158H9.17763ZM11.8421 3.25658V1.48026C11.8421 0.662418 12.5045 0 13.3224 0H15.0987C15.9165 0 16.5789 0.662418 16.5789 1.48026V3.25658C16.5789 4.07442 15.9165 4.73684 15.0987 4.73684H13.3224C12.5045 4.73684 11.8421 4.07442 11.8421 3.25658ZM15.0987 6.63158C15.9165 6.63158 16.5789 7.294 16.5789 8.11184V9.88816C16.5789 10.706 15.9165 11.3684 15.0987 11.3684H13.3224C12.5045 11.3684 11.8421 10.706 11.8421 9.88816V8.11184C11.8421 7.294 12.5045 6.63158 13.3224 6.63158H15.0987ZM3.25658 13.2632C4.07442 13.2632 4.73684 13.9256 4.73684 14.7434V16.5197C4.73684 17.3376 4.07442 18 3.25658 18H1.48026C0.662418 18 0 17.3376 0 16.5197V14.7434C0 13.9256 0.662418 13.2632 1.48026 13.2632H3.25658ZM5.92105 16.5197V14.7434C5.92105 13.9256 6.58347 13.2632 7.40132 13.2632H9.17763C9.99548 13.2632 10.6579 13.9256 10.6579 14.7434V16.5197C10.6579 17.3376 9.99548 18 9.17763 18H7.40132C6.58347 18 5.92105 17.3376 5.92105 16.5197ZM11.8421 16.5197V14.7434C11.8421 13.9256 12.5045 13.2632 13.3224 13.2632H15.0987C15.9165 13.2632 16.5789 13.9256 16.5789 14.7434V16.5197C16.5789 17.3376 15.9165 18 15.0987 18H13.3224C12.5045 18 11.8421 17.3376 11.8421 16.5197Z" fill="white"/>
</svg>
