<svg width="16" height="9" viewBox="0 0 16 9" fill="none" xmlns="http://www.w3.org/2000/svg">
<path d="M10.6666 7.29934C10.1749 7.29934 9.77772 7.67918 9.77772 8.14934C9.77772 8.61949 10.1749 8.99934 10.6666 8.99934H15.1111C15.6027 8.99934 15.9999 8.61949 15.9999 8.14934V3.89934C15.9999 3.42918 15.6027 3.04934 15.1111 3.04934C14.6194 3.04934 14.2222 3.42918 14.2222 3.89934V6.09606L9.51661 1.59902C9.16939 1.26699 8.6055 1.26699 8.25828 1.59902L5.33328 4.39605L1.51661 0.749023C1.16939 0.416992 0.605503 0.416992 0.25828 0.749023C-0.0889418 1.08105 -0.0889418 1.62027 0.25828 1.9523L4.70272 6.20231C5.04995 6.53434 5.61384 6.53434 5.96106 6.20231L8.88884 3.40262L12.9638 7.29934H10.6666Z" fill="white"/>
</svg>
