<svg width="21" height="18" viewBox="0 0 21 18" fill="none" xmlns="http://www.w3.org/2000/svg">
<path d="M10.5 16.5C16.0235 16.5 20.5 12.8633 20.5 8.375C20.5 3.88672 16.0235 0.25 10.5 0.25C4.97658 0.25 0.500015 3.88672 0.500015 8.375C0.500015 10.1367 1.19142 11.7656 2.3633 13.0977C2.28908 14.0547 1.91798 14.9062 1.52736 15.5547C1.31252 15.9141 1.09377 16.2031 0.933609 16.3984C0.851578 16.4961 0.789078 16.5703 0.742203 16.6211C0.718765 16.6445 0.70314 16.6641 0.691422 16.6758L0.679703 16.6875C0.500015 16.8672 0.449234 17.1328 0.54689 17.3672C0.644547 17.6016 0.871109 17.7539 1.12502 17.7539C2.24611 17.7539 3.37502 17.4062 4.31252 17C5.20705 16.6094 5.96877 16.1445 6.43361 15.8047C7.6758 16.2539 9.0508 16.5039 10.5 16.5039V16.5ZM5.50002 7.125C5.83154 7.125 6.14948 7.2567 6.3839 7.49112C6.61832 7.72554 6.75002 8.04348 6.75002 8.375C6.75002 8.70652 6.61832 9.02446 6.3839 9.25888C6.14948 9.4933 5.83154 9.625 5.50002 9.625C5.16849 9.625 4.85055 9.4933 4.61613 9.25888C4.38171 9.02446 4.25002 8.70652 4.25002 8.375C4.25002 8.04348 4.38171 7.72554 4.61613 7.49112C4.85055 7.2567 5.16849 7.125 5.50002 7.125ZM10.5 7.125C10.8315 7.125 11.1495 7.2567 11.3839 7.49112C11.6183 7.72554 11.75 8.04348 11.75 8.375C11.75 8.70652 11.6183 9.02446 11.3839 9.25888C11.1495 9.4933 10.8315 9.625 10.5 9.625C10.1685 9.625 9.85055 9.4933 9.61613 9.25888C9.38171 9.02446 9.25002 8.70652 9.25002 8.375C9.25002 8.04348 9.38171 7.72554 9.61613 7.49112C9.85055 7.2567 10.1685 7.125 10.5 7.125ZM14.25 8.375C14.25 8.04348 14.3817 7.72554 14.6161 7.49112C14.8506 7.2567 15.1685 7.125 15.5 7.125C15.8315 7.125 16.1495 7.2567 16.3839 7.49112C16.6183 7.72554 16.75 8.04348 16.75 8.375C16.75 8.70652 16.6183 9.02446 16.3839 9.25888C16.1495 9.4933 15.8315 9.625 15.5 9.625C15.1685 9.625 14.8506 9.4933 14.6161 9.25888C14.3817 9.02446 14.25 8.70652 14.25 8.375Z" fill="white"/>
</svg>
