<svg width="17" height="18" viewBox="0 0 17 18" fill="none" xmlns="http://www.w3.org/2000/svg">
<path d="M16.6 9C16.6 9.20333 16.5192 9.39834 16.3755 9.54212C16.2317 9.68589 16.0367 9.76667 15.8333 9.76667H9.26667V16.3333C9.26667 16.5367 9.18589 16.7317 9.04212 16.8755C8.89834 17.0192 8.70333 17.1 8.5 17.1C8.29667 17.1 8.10166 17.0192 7.95789 16.8754C7.81411 16.7317 7.73333 16.5367 7.73333 16.3333V9.76667H1.16667C0.963334 9.76667 0.76833 9.68589 0.624551 9.54212M16.6 9L0.624551 9.54212M16.6 9C16.6 8.79667 16.5192 8.60166 16.3755 8.45789C16.2317 8.31411 16.0367 8.23333 15.8333 8.23333H9.26667M16.6 9L9.26667 8.23333M0.624551 9.54212C0.480774 9.39834 0.4 9.20333 0.4 9C0.4 8.79667 0.480774 8.60166 0.624552 8.45789C0.768329 8.31411 0.963334 8.23333 1.16667 8.23333H7.73333V1.66667C7.73333 1.46333 7.81411 1.26833 7.95789 1.12455C8.10166 0.980774 8.29667 0.9 8.5 0.9C8.70333 0.9 8.89834 0.980774 9.04212 1.12455C9.18589 1.26833 9.26667 1.46333 9.26667 1.66667V8.23333M0.624551 9.54212L9.26667 8.23333" fill="#EDD27C" stroke="#EDD27C" stroke-width="0.2"/>
</svg>
