<svg width="20" height="18" viewBox="0 0 20 18" fill="none" xmlns="http://www.w3.org/2000/svg">
<path d="M19.9931 8.87153C19.9931 9.49653 19.4722 9.98611 18.882 9.98611H17.7708L17.7951 15.5486C17.7951 15.6424 17.7882 15.7361 17.7778 15.8299V16.3924C17.7778 17.1597 17.1563 17.7812 16.3889 17.7812H15.8333C15.7951 17.7812 15.757 17.7812 15.7188 17.7778C15.6701 17.7812 15.6215 17.7812 15.5729 17.7812L14.4445 17.7778H13.6111C12.8438 17.7778 12.2222 17.1562 12.2222 16.3889V15.5556V13.3333C12.2222 12.7188 11.7257 12.2222 11.1111 12.2222H8.8889C8.27431 12.2222 7.77778 12.7188 7.77778 13.3333V15.5556V16.3889C7.77778 17.1562 7.15626 17.7778 6.3889 17.7778H5.55556H4.44792C4.39584 17.7778 4.34376 17.7743 4.29167 17.7708C4.25001 17.7743 4.20834 17.7778 4.16667 17.7778H3.61112C2.84376 17.7778 2.22223 17.1562 2.22223 16.3889V12.5C2.22223 12.4688 2.22223 12.434 2.2257 12.4028V9.98264H1.11459C0.48959 9.98264 0.003479 9.49653 0.003479 8.86806C0.003479 8.55556 0.107646 8.27778 0.350701 8.03472L9.25001 0.277778C9.49306 0.0347222 9.77084 0 10.0139 0C10.257 0 10.5347 0.0694444 10.7431 0.243056L19.6111 8.03819C19.8889 8.28125 20.0278 8.55903 19.9931 8.87153Z" fill="white"/>
</svg>
