<svg width="20" height="14" viewBox="0 0 20 14" fill="none" xmlns="http://www.w3.org/2000/svg">
<path d="M9.99999 0C9.74687 0 9.49687 0.04375 9.25937 0.128125L0.493743 3.29375C0.196868 3.40312 -7.27287e-06 3.68438 -7.27287e-06 4C-7.27287e-06 4.31563 0.196868 4.59688 0.493743 4.70625L2.30312 5.35938C1.79062 6.16563 1.49999 7.11875 1.49999 8.12187V9C1.49999 9.8875 1.16249 10.8031 0.803118 11.525C0.599993 11.9312 0.368743 12.3313 0.0999927 12.7C-7.27182e-06 12.8344 -0.0281323 13.0094 0.0281177 13.1687C0.0843677 13.3281 0.215618 13.4469 0.378118 13.4875L2.37812 13.9875C2.50937 14.0219 2.64999 13.9969 2.76562 13.925C2.88124 13.8531 2.96249 13.7344 2.98749 13.6C3.25624 12.2625 3.12187 11.0625 2.92187 10.2031C2.82187 9.75937 2.68749 9.30625 2.49999 8.89062V8.12187C2.49999 7.17812 2.81874 6.2875 3.37187 5.575C3.77499 5.09062 4.29687 4.7 4.90937 4.45937L9.81562 2.53125C10.0719 2.43125 10.3625 2.55625 10.4625 2.8125C10.5625 3.06875 10.4375 3.35938 10.1812 3.45937L5.27499 5.3875C4.88749 5.54062 4.54687 5.775 4.26874 6.0625L9.25624 7.8625C9.49374 7.94688 9.74374 7.99063 9.99687 7.99063C10.25 7.99063 10.5 7.94688 10.7375 7.8625L19.5062 4.70625C19.8031 4.6 20 4.31563 20 4C20 3.68438 19.8031 3.40312 19.5062 3.29375L10.7406 0.128125C10.5031 0.04375 10.2531 0 9.99999 0ZM3.99999 11.75C3.99999 12.8531 6.68749 14 9.99999 14C13.3125 14 16 12.8531 16 11.75L15.5219 7.20625L11.0781 8.8125C10.7312 8.9375 10.3656 9 9.99999 9C9.63437 9 9.26562 8.9375 8.92187 8.8125L4.47812 7.20625L3.99999 11.75Z" fill="white"/>
</svg>
