<svg width="14" height="12" viewBox="0 0 14 12" fill="none" xmlns="http://www.w3.org/2000/svg">
<path d="M1.55556 0.75C0.697569 0.75 0 1.42266 0 2.25V9.75C0 10.5773 0.697569 11.25 1.55556 11.25H12.4444C13.3024 11.25 14 10.5773 14 9.75V2.25C14 1.42266 13.3024 0.75 12.4444 0.75H1.55556ZM3.5 6.75H5.05556C6.12986 6.75 7 7.58906 7 8.625C7 8.83125 6.825 9 6.61111 9H1.94444C1.73056 9 1.55556 8.83125 1.55556 8.625C1.55556 7.58906 2.42569 6.75 3.5 6.75ZM2.72222 4.5C2.72222 4.10218 2.88611 3.72064 3.17783 3.43934C3.46956 3.15804 3.86522 3 4.27778 3C4.69034 3 5.086 3.15804 5.37772 3.43934C5.66945 3.72064 5.83333 4.10218 5.83333 4.5C5.83333 4.89782 5.66945 5.27936 5.37772 5.56066C5.086 5.84196 4.69034 6 4.27778 6C3.86522 6 3.46956 5.84196 3.17783 5.56066C2.88611 5.27936 2.72222 4.89782 2.72222 4.5ZM8.94444 3.75H12.0556C12.2694 3.75 12.4444 3.91875 12.4444 4.125C12.4444 4.33125 12.2694 4.5 12.0556 4.5H8.94444C8.73056 4.5 8.55556 4.33125 8.55556 4.125C8.55556 3.91875 8.73056 3.75 8.94444 3.75ZM8.94444 5.25H12.0556C12.2694 5.25 12.4444 5.41875 12.4444 5.625C12.4444 5.83125 12.2694 6 12.0556 6H8.94444C8.73056 6 8.55556 5.83125 8.55556 5.625C8.55556 5.41875 8.73056 5.25 8.94444 5.25ZM8.94444 6.75H12.0556C12.2694 6.75 12.4444 6.91875 12.4444 7.125C12.4444 7.33125 12.2694 7.5 12.0556 7.5H8.94444C8.73056 7.5 8.55556 7.33125 8.55556 7.125C8.55556 6.91875 8.73056 6.75 8.94444 6.75Z" fill="#B4B4B4"/>
</svg>
