<svg width="21" height="18" viewBox="0 0 21 18" fill="none" xmlns="http://www.w3.org/2000/svg">
<path d="M3.28819 1.53024C2.92361 2.42955 2.72222 3.41219 2.72222 4.44691C2.72222 5.48163 2.92361 6.46427 3.28819 7.36357C3.51736 7.93302 3.24306 8.57885 2.67361 8.81149C2.10417 9.04413 1.45833 8.76635 1.22569 8.19691C0.756944 7.03719 0.5 5.76982 0.5 4.44691C0.5 3.12399 0.756944 1.85663 1.22569 0.696907C1.45833 0.127463 2.10417 -0.146843 2.67361 0.0823241C3.24306 0.311491 3.51736 0.960796 3.28819 1.53024ZM19.7743 0.696907C20.2431 1.85663 20.5 3.12399 20.5 4.44691C20.5 5.76982 20.2431 7.03719 19.7743 8.19691C19.5451 8.76635 18.8958 9.04066 18.3264 8.81149C17.7569 8.58232 17.4826 7.93302 17.7118 7.36357C18.0764 6.46427 18.2778 5.48163 18.2778 4.44691C18.2778 3.41219 18.0764 2.42955 17.7118 1.53024C17.4826 0.960796 17.7569 0.314963 18.3264 0.0823241C18.8958 -0.150315 19.5417 0.127463 19.7743 0.696907ZM12.7222 4.44691C12.7222 5.26982 12.2743 5.98857 11.6111 6.37052V16.6691C11.6111 17.2837 11.1146 17.7802 10.5 17.7802C9.88542 17.7802 9.38889 17.2837 9.38889 16.6691V6.37052C8.72569 5.9851 8.27778 5.26982 8.27778 4.44691C8.27778 3.22121 9.27431 2.22469 10.5 2.22469C11.7257 2.22469 12.7222 3.22121 12.7222 4.44691ZM6.42361 2.66913C6.1875 3.2108 6.05556 3.81149 6.05556 4.44691C6.05556 5.08232 6.1875 5.68302 6.42361 6.22469C6.67014 6.78719 6.4132 7.44344 5.8507 7.68649C5.28819 7.92955 4.63194 7.67607 4.38889 7.11357C4.03125 6.29413 3.83333 5.39135 3.83333 4.44691C3.83333 3.50246 4.03125 2.59969 4.38889 1.78024C4.63542 1.21774 5.28819 0.960796 5.8507 1.20732C6.4132 1.45385 6.67014 2.10663 6.42361 2.66913ZM16.6111 1.78024C16.9688 2.59969 17.1667 3.50246 17.1667 4.44691C17.1667 5.39135 16.9688 6.29413 16.6111 7.11357C16.3646 7.67607 15.7118 7.93302 15.1493 7.68649C14.5868 7.43996 14.3299 6.78719 14.5764 6.22469C14.8125 5.68302 14.9444 5.08232 14.9444 4.44691C14.9444 3.81149 14.8125 3.2108 14.5764 2.66913C14.3299 2.10663 14.5868 1.45038 15.1493 1.20732C15.7118 0.964269 16.3681 1.21774 16.6111 1.78024Z" fill="white"/>
</svg>
