<svg width="16" height="16" viewBox="0 0 16 16" fill="none" xmlns="http://www.w3.org/2000/svg">
<path d="M9.5 1.5C9.5 1.10218 9.34196 0.720644 9.06066 0.43934C8.77936 0.158035 8.39782 0 8 0C7.60218 0 7.22064 0.158035 6.93934 0.43934C6.65804 0.720644 6.5 1.10218 6.5 1.5C6.5 1.89782 6.65804 2.27936 6.93934 2.56066C7.22064 2.84196 7.60218 3 8 3C8.39782 3 8.77936 2.84196 9.06066 2.56066C9.34196 2.27936 9.5 1.89782 9.5 1.5ZM9.5 14.5C9.5 14.1022 9.34196 13.7206 9.06066 13.4393C8.77936 13.158 8.39782 13 8 13C7.60218 13 7.22064 13.158 6.93934 13.4393C6.65804 13.7206 6.5 14.1022 6.5 14.5C6.5 14.8978 6.65804 15.2794 6.93934 15.5607C7.22064 15.842 7.60218 16 8 16C8.39782 16 8.77936 15.842 9.06066 15.5607C9.34196 15.2794 9.5 14.8978 9.5 14.5ZM1.5 9.5C1.89782 9.5 2.27936 9.34196 2.56066 9.06066C2.84196 8.77936 3 8.39782 3 8C3 7.60218 2.84196 7.22064 2.56066 6.93934C2.27936 6.65804 1.89782 6.5 1.5 6.5C1.10218 6.5 0.720644 6.65804 0.43934 6.93934C0.158035 7.22064 0 7.60218 0 8C0 8.39782 0.158035 8.77936 0.43934 9.06066C0.720644 9.34196 1.10218 9.5 1.5 9.5ZM16 8C16 7.60218 15.842 7.22064 15.5607 6.93934C15.2794 6.65804 14.8978 6.5 14.5 6.5C14.1022 6.5 13.7206 6.65804 13.4393 6.93934C13.158 7.22064 13 7.60218 13 8C13 8.39782 13.158 8.77936 13.4393 9.06066C13.7206 9.34196 14.1022 9.5 14.5 9.5C14.8978 9.5 15.2794 9.34196 15.5607 9.06066C15.842 8.77936 16 8.39782 16 8ZM4.46562 13.6562C4.60495 13.5169 4.71547 13.3515 4.79087 13.1695C4.86627 12.9875 4.90508 12.7923 4.90508 12.5953C4.90508 12.3983 4.86627 12.2032 4.79087 12.0211C4.71547 11.8391 4.60495 11.6737 4.46562 11.5344C4.3263 11.3951 4.1609 11.2845 3.97886 11.2091C3.79683 11.1337 3.60172 11.0949 3.40469 11.0949C3.00676 11.0949 2.62513 11.253 2.34375 11.5344C2.06237 11.8158 1.9043 12.1974 1.9043 12.5953C1.9043 12.9932 2.06237 13.3749 2.34375 13.6562C2.62513 13.9376 3.00676 14.0957 3.40469 14.0957C3.80262 14.0957 4.18425 13.9376 4.46562 13.6562ZM4.46562 4.4625C4.61187 4.3248 4.72897 4.15912 4.80997 3.97531C4.89098 3.79149 4.93424 3.59328 4.93718 3.39243C4.94013 3.19157 4.90271 2.99218 4.82713 2.80606C4.75155 2.61995 4.63937 2.45091 4.49722 2.30898C4.35508 2.16704 4.18588 2.0551 3.99965 1.9798C3.81343 1.9045 3.61397 1.86737 3.41313 1.87061C3.21228 1.87386 3.01413 1.91741 2.83043 1.99868C2.64674 2.07996 2.48124 2.1973 2.34375 2.34375C2.06237 2.62513 1.9043 3.00676 1.9043 3.40469C1.9043 3.80262 2.06237 4.18425 2.34375 4.46562C2.62513 4.747 3.00676 4.90508 3.40469 4.90508C3.80262 4.90508 4.18425 4.747 4.46562 4.46562V4.4625ZM11.5344 13.6562C11.6737 13.7956 11.8391 13.9061 12.0211 13.9815C12.2032 14.0569 12.3983 14.0957 12.5953 14.0957C12.7923 14.0957 12.9875 14.0569 13.1695 13.9815C13.3515 13.9061 13.5169 13.7956 13.6562 13.6562C13.7956 13.5169 13.9061 13.3515 13.9815 13.1695C14.0569 12.9875 14.0957 12.7923 14.0957 12.5953C14.0957 12.3983 14.0569 12.2032 13.9815 12.0211C13.9061 11.8391 13.7956 11.6737 13.6562 11.5344C13.5169 11.3951 13.3515 11.2845 13.1695 11.2091C12.9875 11.1337 12.7923 11.0949 12.5953 11.0949C12.3983 11.0949 12.2032 11.1337 12.0211 11.2091C11.8391 11.2845 11.6737 11.3951 11.5344 11.5344C11.3951 11.6737 11.2845 11.8391 11.2091 12.0211C11.1337 12.2032 11.0949 12.3983 11.0949 12.5953C11.0949 12.7923 11.1337 12.9875 11.2091 13.1695C11.2845 13.3515 11.3951 13.5169 11.5344 13.6562Z" fill="white"/>
</svg>
