<svg width="19" height="20" viewBox="0 0 19 20" fill="none" xmlns="http://www.w3.org/2000/svg">
<path d="M8.76923 1.48148V0.740741C8.76923 0.544284 8.84622 0.355874 8.98327 0.216958C9.12031 0.0780421 9.30619 0 9.5 0C9.69381 0 9.87969 0.0780421 10.0167 0.216958C10.1538 0.355874 10.2308 0.544284 10.2308 0.740741V1.48148C10.2308 1.67794 10.1538 1.86635 10.0167 2.00526C9.87969 2.14418 9.69381 2.22222 9.5 2.22222C9.30619 2.22222 9.12031 2.14418 8.98327 2.00526C8.84622 1.86635 8.76923 1.67794 8.76923 1.48148ZM16.0769 4.44444C16.1729 4.44452 16.268 4.42543 16.3567 4.38825C16.4454 4.35107 16.526 4.29654 16.5939 4.22778L17.3247 3.48704C17.4618 3.34804 17.5389 3.15953 17.5389 2.96296C17.5389 2.7664 17.4618 2.57788 17.3247 2.43889C17.1876 2.2999 17.0016 2.22181 16.8077 2.22181C16.6138 2.22181 16.4278 2.2999 16.2907 2.43889L15.5599 3.17963C15.4576 3.28323 15.3879 3.41527 15.3597 3.55903C15.3314 3.7028 15.3459 3.85183 15.4012 3.98725C15.4566 4.12268 15.5503 4.23841 15.6706 4.31979C15.7909 4.40118 15.9323 4.44456 16.0769 4.44444ZM2.40606 4.22778C2.54318 4.36677 2.72916 4.44486 2.92308 4.44486C3.117 4.44486 3.30297 4.36677 3.4401 4.22778C3.57722 4.08878 3.65425 3.90027 3.65425 3.7037C3.65425 3.50714 3.57722 3.31862 3.4401 3.17963L2.70933 2.43889C2.5722 2.2999 2.38623 2.22181 2.19231 2.22181C1.99839 2.22181 1.81241 2.2999 1.67529 2.43889C1.53817 2.57788 1.46113 2.7664 1.46113 2.96296C1.46113 3.15953 1.53817 3.34804 1.67529 3.48704L2.40606 4.22778ZM19 16.2963V18.5185C19 18.9114 18.846 19.2883 18.5719 19.5661C18.2978 19.8439 17.9261 20 17.5385 20H1.46154C1.07391 20 0.702166 19.8439 0.428075 19.5661C0.153983 19.2883 0 18.9114 0 18.5185V16.2963C0 15.9034 0.153983 15.5266 0.428075 15.2487C0.702166 14.9709 1.07391 14.8148 1.46154 14.8148V11.8519C1.46151 10.7766 1.67144 9.71194 2.07923 8.71929C2.48702 7.72665 3.08461 6.82564 3.83755 6.0682C4.59048 5.31075 5.48387 4.71186 6.46622 4.30605C7.44856 3.90023 8.50044 3.69552 9.5612 3.7037C13.9595 3.73704 17.5385 7.43426 17.5385 11.9444V14.8148C17.9261 14.8148 18.2978 14.9709 18.5719 15.2487C18.846 15.5266 19 15.9034 19 16.2963ZM10.1102 8.13796C11.8449 8.43333 13.1538 10.0296 13.1538 11.8519C13.1538 12.0483 13.2308 12.2367 13.3679 12.3756C13.5049 12.5146 13.6908 12.5926 13.8846 12.5926C14.0784 12.5926 14.2643 12.5146 14.4013 12.3756C14.5384 12.2367 14.6154 12.0483 14.6154 11.8519C14.6154 9.31481 12.7821 7.08981 10.3513 6.67685C10.2563 6.65981 10.1588 6.66203 10.0646 6.68338C9.97042 6.70474 9.88131 6.7448 9.80247 6.80126C9.72362 6.85771 9.65659 6.92945 9.60524 7.01231C9.5539 7.09518 9.51926 7.18753 9.50333 7.28405C9.48741 7.38056 9.4905 7.47931 9.51244 7.57461C9.53437 7.6699 9.57472 7.75984 9.63115 7.83924C9.68757 7.91864 9.75896 7.98591 9.84118 8.03719C9.9234 8.08846 10.0148 8.12271 10.1102 8.13796ZM17.5385 18.5185V16.2963H1.46154V18.5185H17.5385Z" fill="white"/>
</svg>
