<svg width="36" height="36" viewBox="0 0 36 36" fill="none" xmlns="http://www.w3.org/2000/svg">
<path d="M0 18C0 13.2261 1.89642 8.64773 5.27208 5.27208C8.64773 1.89642 13.2261 0 18 0C22.7739 0 27.3523 1.89642 30.7279 5.27208C34.1036 8.64773 36 13.2261 36 18C36 22.7739 34.1036 27.3523 30.7279 30.7279C27.3523 34.1036 22.7739 36 18 36C13.2261 36 8.64773 34.1036 5.27208 30.7279C1.89642 27.3523 0 22.7739 0 18ZM13.2398 10.343C12.7055 10.6383 12.375 11.2078 12.375 11.8125V24.1875C12.375 24.7992 12.7055 25.3617 13.2398 25.657C13.7742 25.9523 14.4211 25.9453 14.9484 25.6219L25.0734 19.4344C25.5727 19.125 25.882 18.5836 25.882 17.993C25.882 17.4023 25.5727 16.8609 25.0734 16.5516L14.9484 10.3641C14.4281 10.0477 13.7742 10.0336 13.2398 10.3289V10.343Z" fill="url(#paint0_linear_247_2411)"/>
<defs>
<linearGradient id="paint0_linear_247_2411" x1="18" y1="0" x2="18" y2="36" gradientUnits="userSpaceOnUse">
<stop offset="0.36" stop-color="#EDD27C"/>
<stop offset="1" stop-color="#A37C00"/>
</linearGradient>
</defs>
</svg>
