<svg width="430" height="845" viewBox="0 0 430 845" fill="none" xmlns="http://www.w3.org/2000/svg">
<g opacity="0.1">
<path d="M-242.945 652.706C-242.945 652.706 -14.9685 693.214 89.1261 593.883C195.486 492.391 32.3541 376.892 139.647 276.268C234.79 187.039 359.103 303.797 441.993 205.215C496.051 140.924 494.904 19.569 494.904 19.569" stroke="#F2AF1A"/>
<path d="M-217.781 683.668C-217.781 683.668 10.1957 724.177 114.29 624.846C220.65 523.354 57.5183 407.855 164.811 307.231C259.954 218.002 384.267 334.76 467.157 236.178C521.215 171.886 520.068 50.5319 520.068 50.5319" stroke="#48D4A5"/>
<path d="M-190.71 716.978C-190.71 716.978 37.267 757.487 141.362 658.156C247.721 556.663 84.5896 441.164 191.882 340.541C287.026 251.311 411.339 368.07 494.228 269.488C548.286 205.196 547.14 83.8414 547.14 83.8414" stroke="#5A5A5A"/>
</g>
</svg>
