<svg width="430" height="301" viewBox="0 0 430 301" fill="none" xmlns="http://www.w3.org/2000/svg">
<g opacity="0.5">
<path d="M474.921 178.784C474.921 178.784 372.525 241.417 303.506 213.138C232.985 184.243 289.908 97.6627 219.101 69.3635C156.311 44.2688 118.365 124.122 59.7238 92.1968C21.4798 71.3764 -0.898247 12.5787 -0.898247 12.5787" stroke="#F2AF1A"/>
<path d="M468.624 198.486C468.624 198.486 366.228 261.12 297.209 232.84C226.688 203.945 283.611 117.365 212.804 89.0656C150.015 63.9709 112.069 143.824 53.4272 111.899C15.1832 91.0786 -7.19488 32.2809 -7.19488 32.2809" stroke="#48D4A5"/>
<path d="M461.85 219.681C461.85 219.681 359.455 282.314 290.436 254.035C219.915 225.14 276.837 138.56 206.03 110.26C143.241 85.1657 105.295 165.019 46.6535 133.094C8.40948 112.273 -13.9686 53.4757 -13.9686 53.4757" stroke="#5A5A5A"/>
</g>
</svg>
